<?xml version="1.0" encoding="UTF-8" standalone="no"?>
<!-- Created with Inkscape (http://www.inkscape.org/) -->

<svg
   xmlns:dc="http://purl.org/dc/elements/1.1/"
   xmlns:cc="http://creativecommons.org/ns#"
   xmlns:rdf="http://www.w3.org/1999/02/22-rdf-syntax-ns#"
   xmlns:svg="http://www.w3.org/2000/svg"
   xmlns="http://www.w3.org/2000/svg"
   xmlns:sodipodi="http://sodipodi.sourceforge.net/DTD/sodipodi-0.dtd"
   xmlns:inkscape="http://www.inkscape.org/namespaces/inkscape"
   width="2193"
   height="727.03748"
   id="svg2"
   version="1.1"
   inkscape:version="0.48.4 r9939"
   sodipodi:docname="Nouveau document 1">
  <defs
     id="defs4" />
  <sodipodi:namedview
     id="base"
     pagecolor="#ffffff"
     bordercolor="#666666"
     borderopacity="1.0"
     inkscape:pageopacity="0.0"
     inkscape:pageshadow="2"
     inkscape:zoom="0.28389963"
     inkscape:cx="1026.6585"
     inkscape:cy="221.32007"
     inkscape:document-units="px"
     inkscape:current-layer="g3054"
     showgrid="false"
     showguides="true"
     inkscape:guide-bbox="true"
     fit-margin-top="0"
     fit-margin-left="0"
     fit-margin-right="0"
     fit-margin-bottom="0"
     inkscape:window-width="1366"
     inkscape:window-height="716"
     inkscape:window-x="0"
     inkscape:window-y="0"
     inkscape:window-maximized="1" />
  <metadata
     id="metadata7">
    <rdf:RDF>
      <cc:Work
         rdf:about="">
        <dc:format>image/svg+xml</dc:format>
        <dc:type
           rdf:resource="http://purl.org/dc/dcmitype/StillImage" />
        <dc:title></dc:title>
      </cc:Work>
    </rdf:RDF>
  </metadata>
  <g
     inkscape:label="Calque 1"
     inkscape:groupmode="layer"
     id="layer1"
     transform="translate(582.23375,-1935.7817)">
    <g
       id="g3054"
       transform="translate(-426.20696,1384.292)">
      <path
         style="fill:#ffffff;fill-opacity:1;stroke:none"
         d="m -552.93381,1961.4651 181.82058,7.472 112.08118,102.1184 562.89657,2.4907 -2.49069,-114.5718 378.58531,2.4907 -2.49069,107.0998 117.06256,4.9813 2.49069,84.6836 99.62772,-84.6836 236.61578,-2.4907 0,-104.6091 201.7462,-4.9813 2.4906,107.0998 141.9695,2.4906 109.5905,99.6278 2.4907,353.6783 -2047.34949,4.9814 -107.09979,-112.0811 z"
         id="path3073"
         inkscape:connector-curvature="0"
         transform="translate(426.20696,-1384.292)" />
      <path
         style="fill:#242021"
         d="m 50.973213,1222.428 -93.5,-56.0614 -56.75,-56.6852 -56.750003,-56.6851 0,-250.75329 0,-250.75329 119.238253,0 119.23825,0 56.532267,56.5 56.53228,56.5 255.69429,0 c 251.774,0 255.71016,-0.0297 256.72948,-1.93426 0.67729,-1.26554 1.03518,-20.7988 1.03518,-56.5 l 0,-54.56574 212.9917,0 212.99159,0 0.2584,56.25 0.2583,56.25 56,0.5 56,0.5 0.2649,29.75 c 0.1457,16.3625 0.586,29.75 0.9785,29.75 0.3925,0 14.2405,-13.5 30.7731,-30 l 30.0594,-30 62.9416,0 62.9416,0 56.5322,-56.5 56.5323,-56.5 118.7383,0 118.7382,0 0,54.56574 c 0,35.7012 0.3579,55.23446 1.0352,56.5 1.0079,1.88333 2.8315,1.93426 69.2533,1.93426 l 68.2181,0 56.2467,56.25329 56.2467,56.25329 0,188.05477 0,188.05483 -93.75,62.7106 -93.75,62.7107 -62.7079,-0.019 -62.708,-0.019 -0.292,-29.9181 c -0.1607,-16.4549 -0.6118,-30.2371 -1.0026,-30.6271 -0.3908,-0.39 -20.0159,13.0731 -43.6114,29.9181 l -42.9009,30.6271 -56.6386,0 -56.6386,0 0,-30 c 0,-23.4129 -0.2758,-30 -1.2563,-30 -0.6909,0 -14.7506,13.5 -31.2437,30 l -29.9875,30 -100.5124,0 -100.5124,0 -30.4659,-30.478 c -16.7562,-16.763 -30.8157,-30.1282 -31.2435,-29.7004 -0.4277,0.4277 -3.245,13.1303 -6.2607,28.2281 -3.0156,15.0977 -5.7244,28.4628 -6.0194,29.7003 l -0.5364,2.25 -87.7372,0 -87.7372,0 -29.98749,-30 c -16.4931,-16.5 -30.5528,-30 -31.2437,-30 -0.9805,0 -1.2563,6.5871 -1.2563,30 l 0,30 -88,0 c -48.4,0 -88,-0.1337 -88,-0.2972 0,-1.574 -12.11901,-60.1551 -12.52958,-60.5657 -0.30125,-0.3012 -14.37051,13.2697 -31.26502,30.1576 l -30.71731,30.7053 -163.23691,0 -163.2369,0 -30.01428,-12 c -16.50785,-6.6 -30.46106,-12 -31.00714,-12 -0.60199,0 -0.99286,4.7242 -0.99286,12 l 0,12 -81.75,-2e-4 -81.75,-2e-4 -93.499997,-56.0613 z m 93.499997,-175.9383 0,-68.49998 -55.999997,-0.5 -56,-0.5 0,-62 0,-62 56,-0.5 55.999997,-0.5 0,-68.5 0,-68.5 -55.999997,-0.5 -56,-0.5 -0.5,-56 -0.5,-56 -68.5,0 -68.500003,0 -0.25232,212.97121 -0.25231,212.97117 43.742773,43.7846 43.74278,43.7846 81.50954,-0.2558 81.509537,-0.2558 0,-68.5 z m 520.76847,25.2204 43.73781,-43.7796 -0.25314,-156.4704 -0.25314,-156.47038 -68.7463,-0.25689 -68.74629,-0.25689 -0.25371,131.25689 -0.2537,131.25689 -24.5,0 -24.5,0 -0.5,-131 -0.5,-131 -68.7463,-0.25689 -68.74629,-0.25689 -0.25371,131.25689 -0.2537,131.25689 -24.5,0 -24.5,0 -0.5,-131 -0.5,-131 -68.75,-0.25689 -68.75,-0.25689 0,200.50689 0,200.50687 213.26533,0 213.26533,0 43.73781,-43.7796 z m 231.23153,-156.72038 0,-200 -68.75,-0.25689 -68.75,-0.25689 0,200.51378 0,200.51378 68.75,-0.2569 68.75,-0.2569 0,-199.99998 z m 300.49999,131.50838 0,-68.99159 -55.75,-0.25839 -55.75,-0.2584 0,-62 0,-62 55.75,-0.2584 55.75,-0.25839 0,-68.98321 0,-68.98321 -55.75,-0.25839 -55.75,-0.2584 -0.5,-56 -0.5,-56 -68.5,0 -68.49999,0 -0.2523,212.99347 -0.2523,212.99351 43.748,43.7565 43.74809,43.7565 81.2542,0 81.2543,0 0,-68.9916 z m 351.0001,-0.01 0,-68.99998 -80.893,0 c -72.8414,0 -80.9534,-0.15744 -81.5,-1.58179 -0.793,-2.06656 -0.793,-119.76986 0,-121.83642 0.5466,-1.42435 8.6586,-1.58179 81.5,-1.58179 l 80.893,0 0,-69 0,-69 -106.7371,0 -106.7372,0 -43.2628,43.26286 -43.263,43.26285 0,113.97429 0,113.97428 43.263,43.2629 43.2628,43.2628 106.7372,0 106.7371,0 0,-69 z m 188.2463,-62.24998 0.2537,-131.25 56,0 56,0 0.5,131 0.5,130.99998 68.5,0 68.5,0 0.2531,-156.47036 0.2532,-156.47039 -43.7378,-43.77961 -43.7378,-43.78002 -80.6429,0 c -66.2454,0 -80.8418,-0.23961 -81.7567,-1.34208 -0.7815,-0.94164 -1.191,-17.72534 -1.3725,-56.25 l -0.2586,-54.90792 -68.5,0 -68.5,0 -0.2562,255.5 c -0.1409,140.525 -0.043,256.06248 0.2186,256.74998 0.3735,0.9832 15.1003,1.25 69.0025,1.25 l 68.5277,0 0.2537,-131.24998 z m -839.74639,-351.2504 0,-31 -68.5,0 -68.5,0 -0.26525,29.98907 c -0.14589,16.49399 -0.0463,30.55962 0.22128,31.25695 0.38765,1.0102 14.36328,1.21566 68.76525,1.01093 l 68.27872,-0.25695 0,-31 z"
         id="path3071"
         inkscape:connector-curvature="0" />
    </g>
    <g
       id="g3048"
       transform="translate(-747.20785,1205.4953)" />
    <g
       id="g3040"
       transform="translate(-9.9627713,951.44466)" />
  </g>
</svg>
