<?xml version="1.0"?>
<svg width="200" height="200" xmlns="http://www.w3.org/2000/svg" xmlns:svg="http://www.w3.org/2000/svg" class="opacity-80 hover:opacity-100 fill-black dark:fill-white [&amp;&gt;path]:hidden sm:[&amp;&gt;path]:block [&amp;&gt;#mark]:block [&amp;&gt;#furigana]:opacity-60">
 <g class="layer">
  <title>Layer 1</title>
  <g id="svg_6">
   <path d="m77.04,126.64l65.62,-48.51c3.2,-2.37 7.82,-1.42 9.36,2.25c8.06,19.49 4.44,42.88 -11.61,58.99c-16.05,16.05 -38.38,19.55 -58.81,11.55l-22.33,10.31c32.04,21.91 70.9,16.52 95.12,-7.82c19.31,-19.25 25.23,-45.55 19.66,-69.24l0.06,0.06c-8.11,-34.83 1.95,-48.74 22.63,-77.23c0.47,-0.65 0.95,-1.3 1.48,-2.01l-27.19,27.19l0,-0.06l-94.05,94.53" fill="currentColor" id="mark"/>
   <path d="m63.47,138.42c-22.98,-21.97 -19.01,-55.91 0.59,-75.52c14.51,-14.51 38.2,-20.43 58.93,-11.73l22.27,-10.31c-4.03,-2.9 -9.18,-6.04 -15.04,-8.23c-26.65,-10.96 -58.58,-5.51 -80.25,16.17c-20.79,20.85 -27.36,52.95 -16.11,80.31c8.41,20.49 -5.39,34.94 -19.25,49.57c-4.92,5.15 -9.89,10.31 -13.86,15.81l62.72,-56.09" fill="currentColor" id="svg_1"/>
  </g>
 </g>
</svg>